<svg viewBox="0 0 400 300" xmlns="http://www.w3.org/2000/svg">
  <defs>
    <linearGradient id="bgGradient2" x1="0%" y1="0%" x2="100%" y2="100%">
      <stop offset="0%" style="stop-color:#3b2f1e;stop-opacity:1" />
      <stop offset="100%" style="stop-color:#2a1f15;stop-opacity:1" />
    </linearGradient>
  </defs>
  <rect width="400" height="300" fill="url(#bgGradient2)"/>
  <g transform="translate(200, 150)">
    <!-- Heart -->
    <path d="M -30,-20 C -40,-30 -55,-30 -55,-15 C -55,0 -30,30 0,50 C 30,30 55,0 55,-15 C 55,-30 40,-30 30,-20 C 20,-12 0,-5 0,10 C 0,-5 -20,-12 -30,-20 Z" fill="#f8c8dc" opacity="0.9"/>
    
    <!-- People silhouettes -->
    <circle cx="-50" cy="-40" r="8" fill="#f8c8dc" opacity="0.7"/>
    <path d="M -50,-30 L -50,-10 M -55,-20 L -45,-20 M -50,-10 L -50,5 M -55,5 L -45,5" stroke="#f8c8dc" stroke-width="2" opacity="0.7" stroke-linecap="round"/>
    
    <circle cx="50" cy="-40" r="8" fill="#f8c8dc" opacity="0.7"/>
    <path d="M 50,-30 L 50,-10 M 45,-20 L 55,-20 M 50,-10 L 50,5 M 45,5 L 55,5" stroke="#f8c8dc" stroke-width="2" opacity="0.7" stroke-linecap="round"/>
  </g>
</svg>